<?xml version="1.0" standalone="no"?>
<!DOCTYPE svg PUBLIC "-//W3C//DTD SVG 20010904//EN"
 "http://www.w3.org/TR/2001/REC-SVG-20010904/DTD/svg10.dtd">
<svg version="1.0" xmlns="http://www.w3.org/2000/svg"
 width="235.000000pt" height="396.000000pt" viewBox="0 0 235.000000 396.000000"
 preserveAspectRatio="xMidYMid meet">
<metadata>
Created by potrace 1.16, written by Peter Selinger 2001-2019
</metadata>
<g transform="translate(0.000000,396.000000) scale(0.100000,-0.100000)"
fill="#C5C5C5" stroke="none">
<path d="M1650 3916 c0 -141 -56 -424 -110 -562 -71 -179 -231 -363 -445 -513
-273 -192 -457 -338 -518 -413 -55 -67 -81 -132 -80 -204 1 -139 83 -189 212
-129 73 34 122 75 177 148 42 56 124 210 139 263 5 21 5 21 -45 -4 -44 -21
-54 -23 -79 -12 -57 23 -139 -30 -186 -120 -21 -40 -32 -130 -16 -130 6 0 11
6 11 14 0 20 85 133 110 146 12 6 34 8 50 5 l29 -6 -31 -51 c-44 -70 -145
-177 -177 -185 -55 -15 -81 8 -81 72 0 48 27 102 86 171 65 77 162 151 359
274 258 161 363 254 467 415 116 179 156 307 165 526 3 83 1 175 -7 237 -13
104 -30 137 -30 58z"/>
<path d="M800 3233 c-200 -165 -240 -215 -240 -304 0 -42 5 -63 21 -83 23 -30
69 -56 96 -56 10 0 36 -9 56 -19 l38 -19 82 61 c96 71 223 190 243 229 8 15
14 36 14 47 0 25 -44 77 -91 106 -34 22 -155 75 -168 75 -3 0 -26 -17 -51 -37z"/>
<path d="M2190 2553 c0 -46 -84 -139 -158 -177 -84 -43 -114 -97 -89 -159 17
-38 114 -130 130 -120 17 10 154 109 184 133 69 53 94 152 54 215 -25 41 -101
125 -112 125 -5 0 -9 -8 -9 -17z"/>
<path d="M1182 2470 c-40 -131 -120 -239 -247 -333 -84 -63 -130 -122 -191
-245 -35 -68 -59 -102 -93 -131 -60 -49 -100 -75 -107 -68 -13 12 10 69 57
143 42 66 49 86 47 119 -4 57 -35 55 -66 -4 -36 -70 -74 -112 -215 -242 -73
-66 -161 -149 -197 -183 -100 -95 -170 -244 -170 -363 0 -137 83 -195 225
-158 104 27 187 86 343 241 l144 142 46 -48 c52 -53 119 -80 199 -80 l44 0
-60 -50 c-75 -62 -96 -93 -96 -140 0 -48 15 -64 76 -84 l50 -17 57 45 c73 56
132 121 132 145 0 24 -58 76 -103 90 -71 24 -56 66 57 160 94 78 106 95 106
140 0 61 -105 140 -209 157 -35 6 -46 3 -78 -21 -95 -71 -170 -145 -212 -210
-108 -169 -308 -306 -446 -306 -94 0 -135 32 -135 109 0 53 16 93 71 173 46
68 170 202 232 251 l38 31 -6 -37 c-9 -45 14 -86 49 -86 28 0 127 64 175 113
30 32 36 34 63 25 22 -8 46 -7 85 2 102 22 179 135 158 230 -12 56 -79 47
-152 -23 -18 -17 -33 -26 -33 -21 0 14 31 40 130 111 96 69 169 141 198 199
34 66 53 149 50 211 l-3 58 -13 -45z m-232 -530 c13 -8 13 -14 0 -51 -18 -52
-56 -81 -105 -83 -83 -3 -68 68 24 116 60 31 60 31 81 18z"/>
<path d="M256 2383 c-32 -19 -76 -53 -97 -74 -63 -63 -49 -119 35 -150 20 -7
36 -16 36 -19 0 -3 -26 -25 -58 -48 -123 -90 -141 -161 -50 -208 41 -21 130
-23 136 -3 2 8 35 44 73 80 56 53 69 71 69 97 0 35 -37 68 -89 78 -17 4 -31 9
-31 13 0 3 24 22 52 41 116 78 147 140 96 187 -59 53 -92 54 -172 6z"/>
<path d="M2236 2104 c-40 -51 -126 -104 -242 -148 -232 -90 -310 -137 -377
-225 -26 -35 -52 -80 -58 -101 -11 -38 -6 -90 9 -90 4 0 20 26 35 58 32 71 95
144 150 176 23 13 83 38 132 55 50 18 102 41 118 52 37 27 34 15 -8 -29 -19
-20 -35 -40 -35 -44 0 -16 -221 -193 -342 -273 -205 -136 -310 -258 -359 -415
-31 -100 -27 -185 11 -269 l32 -68 -44 -60 c-56 -75 -121 -201 -142 -272 -31
-104 -17 -172 48 -228 29 -27 36 -39 36 -70 0 -40 39 -135 61 -148 9 -6 10 -2
5 16 -4 13 -10 54 -13 92 l-6 67 85 0 c277 0 516 169 652 461 56 121 56 124
-4 84 -71 -47 -118 -52 -207 -21 -40 15 -93 26 -117 26 -39 0 -120 -21 -180
-46 -63 -25 153 201 294 310 127 97 314 277 381 366 65 85 132 223 165 335 28
98 47 325 27 325 -6 0 -13 -14 -17 -30 -12 -63 -128 -336 -171 -406 -64 -103
-169 -211 -315 -324 -125 -98 -244 -199 -400 -340 l-83 -75 5 90 c9 154 68
284 177 394 31 31 146 124 255 206 226 171 272 212 334 309 49 75 145 272 140
287 -2 5 -16 -7 -32 -27z m-520 -1524 c19 -12 34 -25 33 -28 -1 -13 -176 -164
-246 -213 -39 -27 -91 -56 -115 -65 -39 -14 -44 -13 -55 3 -20 26 -16 108 7
152 32 64 135 144 220 172 39 13 118 2 156 -21z"/>
</g>
</svg>
