<svg width="145" height="50" viewBox="0 0 145 50" fill="none" xmlns="http://www.w3.org/2000/svg">
    <rect width="145" height="50" fill="black" fill-opacity="0"/>
    <rect width="145" height="50" fill="black" fill-opacity="0"/>
    <rect width="145" height="50" fill="black" fill-opacity="0"/>
    <path d="M35.5488 23.7703C34.5207 27.1911 32.2509 30.1422 29.1531 32.0856C26.0553 34.029 22.3357 34.8354 18.6723 34.3578C15.0089 33.8802 11.6456 32.1504 9.19538 29.4837C6.74521 26.8169 5.3713 23.3908 5.32406 19.8298C5.27683 16.2688 6.55942 12.81 8.93807 10.0838C11.3167 7.35766 14.633 5.54562 18.2826 4.97799C21.9321 4.41037 25.6719 5.12494 28.8202 6.99148C31.9686 8.85802 34.3159 11.7522 35.4344 15.1466H40.6066L40.5021 14.7442C39.2642 10.1133 36.3151 6.07644 32.208 3.3907C28.1009 0.704953 23.1178 -0.445231 18.1932 0.155829C13.2686 0.756889 8.74072 3.06791 5.45866 6.65552C2.1766 10.2431 0.365784 14.8609 0.365784 19.6429C0.365784 24.4249 2.1766 29.0427 5.45866 32.6303C8.74072 36.2179 13.2686 38.529 18.1932 39.13C23.1178 39.7311 28.1009 38.5809 32.208 35.8951C36.3151 33.2094 39.2642 29.1726 40.5021 24.5417L40.706 23.7703H35.5488Z" fill="#FF1D1D"/>
    <path d="M5.55512 49.6797L20.5246 21.4323L35.4891 49.6797H41.0442L22.7476 15.1466H18.2966L0 49.6797H5.55512Z" fill="#004CED"/>
    <path d="M62.9812 29.208C61.9994 29.231 61.0229 29.0617 60.111 28.7104C59.1991 28.3592 58.3708 27.8332 57.6761 27.1644C56.9814 26.4957 56.4349 25.698 56.0696 24.8198C55.7044 23.9415 55.528 23.001 55.5512 22.0552C55.5579 20.8169 55.8968 19.6013 56.5347 18.5263C57.1727 17.4513 58.0883 16.5533 59.1925 15.9195C60.2968 15.2856 61.5523 14.9374 62.8374 14.9086C64.1224 14.8798 65.3934 15.1714 66.5271 15.7551C67.5851 16.2955 68.473 17.0996 69.0983 18.0835L66.2834 19.6549C65.9731 19.1195 65.5038 18.6858 64.9357 18.4092C64.3325 18.1072 63.6609 17.9541 62.9812 17.9637C62.4225 17.938 61.8644 18.0244 61.3421 18.2173C60.8199 18.4103 60.345 18.7057 59.9475 19.0848C59.5641 19.4829 59.2668 19.9506 59.073 20.4606C58.8792 20.9706 58.7927 21.5126 58.8186 22.0552C58.7928 22.5969 58.8794 23.1382 59.0732 23.6474C59.267 24.1566 59.5643 24.6235 59.9475 25.0208C60.345 25.3998 60.8199 25.6952 61.3421 25.8882C61.8644 26.0812 62.4225 26.1675 62.9812 26.1418C63.6729 26.1541 64.3568 25.9993 64.9705 25.6915C65.534 25.4161 65.9984 24.9837 66.3033 24.4506L69.1182 26.0269C68.5038 27.0107 67.6237 27.8154 66.5719 28.3553C65.4697 28.9291 64.2339 29.2226 62.9812 29.208Z" fill="#004CED"/>
    <path d="M80.9595 28.935L80.1936 26.7695H74.723L74.0069 28.935H70.4361L75.29 15.1754H79.4526L84.3214 28.935H80.9595ZM75.6928 23.823H79.1741L77.3837 18.7734L75.6928 23.823Z" fill="#004CED"/>
    <path d="M91.2392 29.208C89.9571 29.2546 88.6892 28.9364 87.5938 28.293C86.6455 27.7026 85.9241 26.8292 85.5398 25.8065L88.3547 24.235C88.5754 24.8189 88.9838 25.3197 89.5206 25.6644C90.0573 26.0091 90.6942 26.1797 91.3386 26.1514C92.6317 26.1514 93.2782 25.7777 93.2782 25.0303C93.2785 24.8305 93.2203 24.6346 93.1104 24.4651C93.0004 24.2957 92.8431 24.1595 92.6565 24.0721C91.9096 23.7263 91.1259 23.4596 90.3191 23.2768C89.7816 23.1395 89.2561 22.9617 88.7476 22.7451C88.2799 22.5368 87.8392 22.2763 87.4346 21.9689C87.0019 21.6545 86.6596 21.239 86.44 20.7616C86.206 20.2335 86.0908 19.6637 86.1018 19.0896C86.0797 18.5093 86.1971 17.9321 86.4446 17.4027C86.6922 16.8733 87.0634 16.4062 87.5291 16.0377C88.4759 15.279 89.6747 14.8742 90.906 14.8975C91.9928 14.8811 93.0627 15.1582 93.9943 15.6976C94.9168 16.2546 95.6525 17.0565 96.1129 18.0068L93.3627 19.5591C93.1505 19.0922 92.8205 18.6838 92.4029 18.3709C91.9634 18.0854 91.4406 17.9428 90.9109 17.9637C90.5081 17.9413 90.109 18.0492 89.777 18.2703C89.6552 18.3546 89.5558 18.4653 89.4866 18.5934C89.4175 18.7216 89.3807 18.8637 89.3792 19.0081C89.3829 19.1833 89.43 19.3551 89.5165 19.5092C89.603 19.6634 89.7264 19.7954 89.8765 19.8944C90.5185 20.2691 91.2162 20.547 91.9454 20.7185C92.5173 20.8862 92.94 21.0251 93.2732 21.1305C93.6835 21.277 94.0823 21.4515 94.4668 21.6527C94.8786 21.844 95.2523 22.1035 95.5709 22.4193C95.8504 22.7303 96.0785 23.081 96.2472 23.4589C96.5679 24.2485 96.6272 25.1144 96.4171 25.9378C96.207 26.7612 95.7377 27.5018 95.0735 28.0582C93.9728 28.8588 92.6171 29.2654 91.2392 29.208Z" fill="#004CED"/>
    <path d="M104.503 15.1754C105.16 15.162 105.812 15.2769 106.422 15.5132C107.031 15.7496 107.585 16.1024 108.049 16.5504C108.512 16.9872 108.881 17.5089 109.133 18.0848C109.384 18.6607 109.514 19.2792 109.514 19.904C109.514 20.5289 109.384 21.1474 109.133 21.7233C108.881 22.2992 108.512 22.8209 108.049 23.2577C107.585 23.7057 107.031 24.0585 106.422 24.2948C105.812 24.5311 105.16 24.6461 104.503 24.6327H102.359V28.9445H99.0919V15.1754H104.503ZM104.503 21.6623C104.736 21.6678 104.968 21.6249 105.182 21.5364C105.397 21.4479 105.589 21.3161 105.746 21.1497C106.061 20.8009 106.234 20.3543 106.234 19.8921C106.234 19.4298 106.061 18.9832 105.746 18.6344C105.589 18.4681 105.397 18.3362 105.182 18.2477C104.968 18.1592 104.736 18.1163 104.503 18.1218H102.359V21.6623H104.503Z" fill="#004CED"/>
    <path d="M112.152 15.1754H115.414V28.935H112.152V15.1754Z" fill="#004CED"/>
    <path d="M128.195 28.935L127.43 26.7695H121.934L121.223 28.935H117.652L122.506 15.1754H126.669L131.537 28.935H128.195ZM122.924 23.823H126.405L124.62 18.7734L122.924 23.823Z" fill="#004CED"/>
    <path d="M141.738 15.1754H145V28.935H142.553L137.043 21.4659V28.935H133.78V15.1754H136.227L141.738 22.6445V15.1754Z" fill="#004CED"/>
    <path d="M65.4728 49.7181L64.7069 47.5574H59.2363L58.5202 49.7181H54.9494L59.8033 35.9585H63.9659L68.8347 49.7181H65.4728ZM60.2061 44.6062H63.6874L61.897 39.5565L60.2061 44.6062Z" fill="#004CED"/>
    <path d="M84.6894 42.0526V43.2312C84.6894 45.2913 84.0263 46.933 82.7001 48.1563C82.0263 48.7699 81.2326 49.2486 80.3653 49.5644C79.4979 49.8802 78.574 50.0269 77.6473 49.996C76.6279 50.0283 75.6122 49.8621 74.6611 49.5072C73.71 49.1524 72.843 48.6163 72.1121 47.9311C71.4008 47.2785 70.8384 46.4903 70.4608 45.6168C70.0832 44.7432 69.8986 43.8035 69.9189 42.8575C69.9017 41.9097 70.0876 40.9687 70.465 40.0933C70.8423 39.2178 71.403 38.4268 72.1121 37.7695C72.8032 37.0918 73.6309 36.5573 74.5443 36.1989C75.4577 35.8405 76.4375 35.6658 77.4235 35.6854C78.701 35.6721 79.9615 35.9687 81.0888 36.5478C82.1421 37.0765 83.0323 37.863 83.6699 38.8283L80.8948 40.3614C80.5457 39.8609 80.0629 39.4604 79.4973 39.202C78.8463 38.8943 78.1287 38.74 77.4036 38.7516C76.8505 38.7393 76.3006 38.8357 75.7876 39.0351C75.2745 39.2344 74.8091 39.5325 74.4196 39.911C74.0225 40.3016 73.7118 40.7659 73.5066 41.2757C73.3015 41.7855 73.206 42.3302 73.2261 42.8766C73.2062 43.4191 73.3048 43.9596 73.5156 44.463C73.7263 44.9665 74.0445 45.4217 74.4495 45.7991C75.3326 46.5747 76.498 46.9829 77.692 46.9346C79.5819 46.9346 80.7987 46.2255 81.3424 44.8074H77.5279V42.0526H84.6894Z" fill="#004CED"/>
    <path d="M90.8115 46.6902H96.5208V49.7181H87.5291V35.9585H96.4064V38.9864H90.8115V41.2669H95.9091V44.2564H90.8115V46.6902Z" fill="#004CED"/>
    <path d="M107.338 35.9585H110.6V49.7181H108.153L102.643 42.249V49.7181H99.3805V35.9585H101.827L107.338 43.4276V35.9585Z" fill="#004CED"/>
    <path d="M120.885 49.996C119.902 50.019 118.926 49.8495 118.013 49.498C117.101 49.1464 116.272 48.62 115.578 47.9507C114.883 47.2814 114.337 46.4832 113.972 45.6044C113.607 44.7256 113.431 43.7845 113.455 42.8383C113.431 41.8925 113.608 40.9519 113.973 40.0737C114.338 39.1955 114.885 38.3978 115.58 37.729C116.274 37.0603 117.103 36.5343 118.015 36.183C118.926 35.8318 119.903 35.6625 120.885 35.6854C122.124 35.6753 123.346 35.9687 124.436 36.5382C125.493 37.08 126.38 37.8838 127.007 38.8666L124.187 40.4428C123.877 39.9075 123.41 39.4724 122.844 39.1924C122.238 38.8946 121.565 38.7433 120.885 38.7516C120.328 38.7273 119.773 38.8144 119.253 39.0074C118.734 39.2004 118.261 39.495 117.866 39.8727C117.134 40.701 116.733 41.7531 116.733 42.8407C116.733 43.9283 117.134 44.9804 117.866 45.8087C118.261 46.1873 118.733 46.4828 119.253 46.6766C119.772 46.8704 120.328 46.9582 120.885 46.9346C121.577 46.9453 122.261 46.7889 122.874 46.4794C123.436 46.2046 123.9 45.7741 124.207 45.2434L127.027 46.8148C126.412 47.7999 125.53 48.6049 124.475 49.1432C123.373 49.7174 122.137 50.0109 120.885 49.996Z" fill="#004CED"/>
    <path d="M140.877 35.9585L136.083 44.4337V49.7037H132.821V44.4337L128.026 35.9585H131.736L134.452 41.2286L137.167 35.9585H140.877Z" fill="#004CED"/>
</svg>